<svg xmlns="http://www.w3.org/2000/svg" version="1.1" width="150px" height="88px"><path fill="#32c757" d="M26.39990234375,51.89453125q0-0.458984375,0.5966796875-0.585205078125t0.91796875-0.126220703125q2.01953125,0,3.97021484375-0.34423828125t3.92431640625-0.34423828125q0.18359375,0,0.608154296875,0.02294921875t0.80322265625,0.091796875t0.677001953125,0.2294921875t0.29833984375,0.48193359375q0,0.57373046875-0.275390625,1.65234375t-0.745849609375,2.421142578125t-1.03271484375,2.845703125t-1.12451171875,2.86865234375t-1.0556640625,2.467041015625t-0.791748046875,1.72119140625q0.75732421875,0.1376953125,1.85888671875,0.2294921875t2.08837890625,0.18359375t1.65234375,0.309814453125t0.61962890625,0.539306640625q-0.091796875,0.52783203125-0.94091796875,0.826171875q-0.826171875,0.29833984375-2.0654296875,0.4130859375q-0.75732421875,0.06884765625-1.6064453125,0.06884765625q-0.5048828125,0-1.009765625-0.02294921875q-1.376953125-0.06884765625-2.581787109375-0.2294921875t-2.008056640625-0.447509765625t-0.80322265625-0.608154296875q0-0.1376953125,0.401611328125-1.12451171875t0.98681640625-2.398193359375t1.296630859375-3.0751953125t1.365478515625-3.201416015625t1.1474609375-2.73095703125t0.677001953125-1.65234375q-1.35400390625,0.091796875-2.742431640625,0.2294921875t-2.742431640625,0.1376953125q-0.18359375,0-0.585205078125-0.02294921875t-0.7802734375-0.11474609375t-0.6884765625-0.263916015625t-0.309814453125-0.447509765625z M44.132075195312,35.48583984375q0-0.3671875,0.263916015625-0.608154296875t0.61962890625-0.378662109375t0.7802734375-0.18359375t0.745849609375-0.0458984375q0.66552734375,0,1.411376953125,0.18359375t1.113037109375,0.80322265625q0.66552734375,1.12451171875,0.975341796875,2.673583984375t0.585205078125,2.971923828125q0.4130859375,1.9736328125,1.0556640625,4.130859375t1.342529296875,4.394775390625t1.434326171875,4.394775390625t1.28515625,4.0390625q0.66552734375-2.77685546875,1.227783203125-5.69140625t1.07861328125-5.8291015625t1.07861328125-5.8291015625t1.227783203125-5.71435546875q0.1376953125-0.66552734375,0.20654296875-1.67529296875t0.286865234375-1.95068359375t0.631103515625-1.617919921875t1.26220703125-0.677001953125q0.89501953125,0,1.204833984375,0.493408203125t0.309814453125,1.434326171875q-0.2294921875,2.59326171875-0.745849609375,5.140625t-0.952392578125,5.0947265625q-0.61962890625,3.14404296875-1.342529296875,6.299560546875t-1.35400390625,6.322509765625t-1.07861328125,6.345458984375t-0.539306640625,6.368408203125q0.0458984375,0.1376953125,0.1376953125,0.3212890625t0.091796875,0.275390625q0,0.275390625-0.25244140625,0.516357421875t-0.631103515625,0.4130859375t-0.826171875,0.263916015625t-0.837646484375,0.091796875q-0.3671875,0-0.837646484375-0.0458984375t-0.94091796875-0.172119140625t-0.826171875-0.332763671875t-0.447509765625-0.52783203125q-0.3671875-1.07861328125-0.677001953125-2.099853515625t-0.585205078125-2.099853515625q-1.30810546875-4.70458984375-2.742431640625-9.237060546875t-2.650634765625-9.214111328125q-0.57373046875-2.111328125-0.860595703125-4.142333984375t-0.929443359375-4.004638671875q0.091796875,0.18359375,0.091796875,0.29833984375q-0.091796875-0.3212890625-0.18359375-0.608154296875t-0.20654296875-0.631103515625q0,0.091796875,0.02294921875,0.11474609375t0.02294921875,0.06884765625q0-0.0458984375-0.02294921875-0.06884765625t-0.02294921875-0.06884765625z M68.955556640625,58.38916015625q0-2.111328125,0.493408203125-4.142333984375t0.837646484375-4.050537109375q0.091796875-0.52783203125,0.722900390625-0.654052734375t1.067138671875-0.126220703125q0.75732421875,0,1.21630859375,0.2294921875q0.18359375,0.091796875,0.34423828125,0.20654296875t0.16064453125,0.29833984375q0,1.9736328125-0.470458984375,3.85546875t-0.470458984375,3.9931640625q0,0.71142578125,0.103271484375,1.342529296875t0.195068359375,1.250732421875l0.1376953125,0.66552734375q0,0.18359375,0.02294921875,0.3212890625t0.06884765625,0.3212890625q0,0.4130859375-0.585205078125,0.562255859375t-1.021240234375,0.149169921875q-0.66552734375,0-1.227783203125-0.263916015625t-0.883544921875-0.906494140625l-0.3212890625-0.66552734375q-0.275390625-0.52783203125-0.275390625-1.181884765625t-0.11474609375-1.204833984375z M70.424306640625,44.57373046875l0-0.43603515625q0-1.07861328125,0.539306640625-1.927734375t1.617919921875-0.84912109375q0.1376953125,0,0.263916015625,0.02294921875t0.263916015625,0.02294921875q0.275390625,0.0458984375,0.722900390625,0.218017578125t0.447509765625,0.539306640625l0,0.0458984375q-0.091796875,0.18359375-0.11474609375,0.378662109375t-0.11474609375,0.332763671875l0.0458984375-0.0458984375q-0.275390625,0.71142578125-0.447509765625,1.1474609375t-0.378662109375,0.699951171875t-0.516357421875,0.378662109375t-0.883544921875,0.11474609375q-0.091796875,0-0.3212890625-0.02294921875t-0.493408203125-0.091796875t-0.447509765625-0.18359375t-0.18359375-0.34423828125z M78.976791992188,59.880859375q0-1.6064453125,0.355712890625-3.78662109375t1.204833984375-4.130859375t2.237548828125-3.316162109375t3.499755859375-1.365478515625q1.9736328125,0,2.96044921875,1.135986328125t0.98681640625,3.063720703125q0,1.26220703125-0.470458984375,2.765380859375t-1.342529296875,2.845703125t-2.0654296875,2.237548828125t-2.662109375,0.89501953125l-0.5966796875-0.0458984375q0,0.61962890625,0.18359375,1.663818359375t0.539306640625,2.076904296875t0.91796875,1.81298828125t1.365478515625,0.7802734375q1.17041015625,0,2.2490234375-0.94091796875t2.04248046875-2.08837890625t1.7900390625-2.08837890625t1.5146484375-0.94091796875q0.3671875,0,0.75732421875,0.11474609375t0.43603515625,0.642578125q0,0.3212890625-0.172119140625,0.52783203125t-0.309814453125,0.458984375q-0.71142578125,1.21630859375-1.549072265625,2.31787109375t-1.893310546875,1.99658203125t-2.306396484375,1.411376953125t-2.765380859375,0.516357421875q-1.9736328125,0-3.28173828125-0.699951171875t-2.111328125-1.8818359375t-1.158935546875-2.73095703125t-0.355712890625-3.247314453125z M83.084702148438,58.13671875l0.642578125,0.57373046875q0.458984375,0.4130859375,0.91796875,0.18359375t0.826171875-0.837646484375t0.677001953125-1.503173828125t0.55078125-1.8359375t0.355712890625-1.8359375t0.11474609375-1.49169921875l0-0.7802734375t-0.06884765625-0.826171875t-0.240966796875-0.654052734375t-0.539306640625-0.332763671875q-0.11474609375-0.02294921875-0.20654296875-0.02294921875q-0.7802734375,0-1.3310546875,0.98681640625q-0.5966796875,1.1015625-0.9638671875,2.673583984375t-0.52783203125,3.224365234375t-0.20654296875,2.478515625z M98.2006640625,60.77587890625q0-0.84912109375,0.034423828125-2.489990234375t0.240966796875-3.339111328125t0.677001953125-3.0751953125t1.411376953125-1.76708984375q0.2294921875-0.091796875,0.745849609375-0.16064453125t1.03271484375-0.0458984375t0.91796875,0.18359375t0.401611328125,0.5966796875q0,0.091796875-0.091796875,0.25244140625t-0.48193359375,0.5048828125q-0.71142578125,1.9736328125-0.8720703125,3.92431640625t-0.16064453125,4.01611328125q0,1.21630859375,0.080322265625,2.4326171875t0.263916015625,2.45556640625q0.3671875-0.52783203125,0.745849609375-1.58349609375t0.80322265625-2.306396484375t0.8720703125-2.535888671875t1.009765625-2.3408203125t1.2392578125-1.744140625t1.526123046875-0.6884765625q0.94091796875,0,1.572021484375,1.181884765625t1.17041015625,2.73095703125t1.009765625,3.14404296875t1.135986328125,2.444091796875q0.3212890625-0.3212890625,0.516357421875-0.837646484375t0.309814453125-1.113037109375t0.1376953125-1.181884765625t0.02294921875-0.998291015625q0-1.03271484375-0.309814453125-2.237548828125t-0.654052734375-2.260498046875t-0.654052734375-1.778564453125t-0.309814453125-0.837646484375q0-0.18359375,0.195068359375-0.29833984375t0.447509765625-0.18359375t0.516357421875-0.091796875t0.401611328125-0.02294921875q0.84912109375,0,1.457275390625,0.94091796875t0.9638671875,2.18017578125t0.516357421875,2.512939453125t0.16064453125,1.985107421875q0,0.89501953125-0.1376953125,1.90478515625t-0.516357421875,1.870361328125t-1.113037109375,1.434326171875t-1.85888671875,0.57373046875q-1.35400390625,0-2.22607421875-0.75732421875t-1.411376953125-1.8359375t-0.84912109375-2.352294921875t-0.585205078125-2.306396484375q-0.52783203125,1.21630859375-0.9638671875,3.0751953125t-1.1015625,3.64892578125t-1.6982421875,3.05224609375t-2.68505859375,1.26220703125t-2.352294921875-0.814697265625t-1.113037109375-2.237548828125l0.0458984375,0.0458984375q-0.275390625-1.03271484375-0.355712890625-2.0654296875t-0.080322265625-2.0654296875z"/><path fill="#" d=""/></svg>
